<svg width="55" height="55" viewBox="0 0 55 55" fill="none" xmlns="http://www.w3.org/2000/svg">
<path fill-rule="evenodd" clip-rule="evenodd" d="M30.2919 6.31957C25.5527 8.72762 14.8701 20.6142 11.3861 27.2748C9.28544 31.2968 9.54169 31.5273 16.3303 31.9116L21.1721 32.1934C12.3852 47.5639 13.2818 45.9244 13.2049 46.0781C11.2836 49.3828 13.8966 51.5859 16.6633 48.9985C16.6889 48.9729 40.4364 30.5282 44.689 24.4056C45.1757 23.7139 45.0477 22.9198 43.9717 22.1256C42.2041 20.8191 39.8217 20.4092 31.1373 19.692C29.7795 19.5895 29.1648 19.4358 29.2672 19.2309C29.9077 17.6682 32.3669 11.11 33.5453 8.54829C34.9287 5.55103 34.8006 4.01398 30.2919 6.31957ZM28.5242 12.0579C28.2937 12.5959 25.4501 19.4102 25.322 19.692C24.656 21.0241 25.0915 21.7158 26.7566 21.8951C32.29 22.4843 34.4931 22.6892 36.7219 22.7917C40.4108 22.971 40.4365 22.8173 36.5426 26.7368C32.3926 30.9381 21.7869 40.6728 21.5563 40.4422C21.3514 40.2373 24.7585 33.7304 25.6808 32.5264C27.3459 30.3489 26.8335 30.0415 21.5307 30.0415C19.1482 30.0415 17.6624 29.9902 16.5352 29.9134C15.4849 29.8365 14.8444 28.7094 15.3568 27.7615C17.2781 24.2519 20.7109 19.8713 26.4237 13.595C29.0367 10.777 29.0878 10.7258 28.5242 12.0579Z" fill="#000001"/>
</svg>
